<svg xmlns:xlink="http://www.w3.org/1999/xlink"  class="w-6 h-6" viewBox="0 0 24 24" fill="#fff" xmlns="http://www.w3.org/2000/svg"><path fill-rule="evenodd" clip-rule="evenodd" d="M4.232 7.232A2.5 2.5 0 0 1 6 6.5h5a.5.5 0 0 1 0 1H6A1.5 1.5 0 0 0 4.5 9v9A1.5 1.5 0 0 0 6 19.5h9a1.5 1.5 0 0 0 1.5-1.5v-5a.5.5 0 0 1 1 0v5a2.5 2.5 0 0 1-2.5 2.5H6A2.5 2.5 0 0 1 3.5 18V9a2.5 2.5 0 0 1 .732-1.768Z"></path><path fill-rule="evenodd" clip-rule="evenodd" d="M20.354 3.646a.5.5 0 0 1 0 .708l-10 10a.5.5 0 0 1-.708-.708l10-10a.5.5 0 0 1 .708 0Z"></path><path fill-rule="evenodd" clip-rule="evenodd" d="M14.5 4a.5.5 0 0 1 .5-.5h5a.5.5 0 0 1 .5.5v5a.5.5 0 0 1-1 0V4.5H15a.5.5 0 0 1-.5-.5Z"></path></svg>